<svg width="198" height="60" viewBox="0 0 198 60" fill="none" xmlns="http://www.w3.org/2000/svg">
<path d="M77.5009 33.028L77.5289 31.18C74.7289 31.012 72.6849 30.3213 71.3969 29.108C70.1276 27.8947 69.4929 25.9347 69.4929 23.228C69.4929 21.3987 69.7822 19.9333 70.3609 18.832C70.9396 17.712 71.8262 16.8813 73.0209 16.34C74.2156 15.7987 75.7182 15.472 77.5289 15.36L77.5009 13.428H80.8049L80.7769 15.36C83.5582 15.528 85.5836 16.2187 86.8529 17.432C88.1409 18.6267 88.7849 20.5587 88.7849 23.228C88.7849 25.076 88.4956 26.56 87.9169 27.68C87.3382 28.8 86.4516 29.64 85.2569 30.2C84.0809 30.7413 82.5876 31.0587 80.7769 31.152L80.8049 33L77.5009 33.028ZM80.6929 22.108L80.7489 28.66C82.0369 28.5853 83.0076 28.3893 83.6609 28.072C84.3329 27.736 84.7902 27.1947 85.0329 26.448C85.2756 25.6827 85.3969 24.6373 85.3969 23.312C85.3969 21.968 85.2756 20.9133 85.0329 20.148C84.7902 19.3827 84.3329 18.832 83.6609 18.496C83.0076 18.1413 82.0369 17.9267 80.7489 17.852L80.6929 22.108ZM72.8809 23.312C72.8809 24.6373 73.0116 25.6733 73.2729 26.42C73.5529 27.1667 74.0289 27.708 74.7009 28.044C75.3729 28.38 76.3249 28.5853 77.5569 28.66L77.5849 24.012L77.5289 17.852C76.2782 17.9267 75.3169 18.1413 74.6449 18.496C73.9729 18.832 73.5062 19.3827 73.2449 20.148C73.0022 20.9133 72.8809 21.968 72.8809 23.312ZM92.6331 33L92.7451 23.9L92.6331 13.456C92.6331 13.456 92.8478 13.4373 93.2771 13.4C93.7065 13.3627 94.2665 13.316 94.9571 13.26C95.6665 13.204 96.4225 13.1573 97.2251 13.12C98.0465 13.0827 98.8398 13.064 99.6051 13.064C101.434 13.064 102.853 13.624 103.861 14.744C104.869 15.864 105.373 17.544 105.373 19.784C105.373 21.184 105.186 22.3413 104.813 23.256C104.458 24.152 103.973 24.8613 103.357 25.384C102.76 25.888 102.088 26.252 101.341 26.476C100.594 26.6813 99.8198 26.784 99.0171 26.784C98.3638 26.784 97.7291 26.7653 97.1131 26.728C96.4971 26.6907 96.0958 26.6627 95.9091 26.644V33H92.6331ZM99.1571 24.096C100.202 24.096 100.893 23.9373 101.229 23.62C101.49 23.3587 101.677 22.892 101.789 22.22C101.901 21.548 101.957 20.652 101.957 19.532C101.957 18.6173 101.91 17.9267 101.817 17.46C101.724 16.9933 101.612 16.6667 101.481 16.48C101.369 16.2747 101.257 16.1253 101.145 16.032C100.996 15.92 100.725 15.8267 100.333 15.752C99.9598 15.6587 99.5025 15.612 98.9611 15.612C98.3638 15.612 97.7851 15.64 97.2251 15.696C96.6838 15.752 96.2451 15.808 95.9091 15.864V23.816C96.0585 23.8533 96.4411 23.9093 97.0571 23.984C97.6918 24.0587 98.3918 24.096 99.1571 24.096ZM109.395 33V13.428H119.979V16.256L112.671 16.2L112.531 21.688H119.279V24.432H112.531L112.671 30.228L119.979 30.172V33H109.395ZM124.27 33V13.428H127.546L127.462 22.948L127.434 30.172H133.454L133.482 23.06L133.398 13.428H136.674L136.59 23.06L136.646 30.172H142.582V23.004L142.47 13.428H145.746V33H124.27ZM157.871 33.392C156.807 33.392 155.808 33.2427 154.875 32.944C153.96 32.6453 153.139 32.1227 152.411 31.376C151.701 30.6293 151.141 29.5933 150.731 28.268C150.339 26.9427 150.143 25.244 150.143 23.172C150.143 21.1187 150.339 19.4387 150.731 18.132C151.141 16.8067 151.701 15.78 152.411 15.052C153.139 14.3053 153.96 13.792 154.875 13.512C155.808 13.2133 156.807 13.064 157.871 13.064C158.916 13.064 159.905 13.2133 160.839 13.512C161.772 13.792 162.593 14.3053 163.303 15.052C164.012 15.78 164.572 16.8067 164.983 18.132C165.393 19.4387 165.599 21.1187 165.599 23.172C165.599 25.244 165.393 26.9427 164.983 28.268C164.572 29.5933 164.012 30.6293 163.303 31.376C162.593 32.1227 161.772 32.6453 160.839 32.944C159.905 33.2427 158.916 33.392 157.871 33.392ZM157.871 30.48C158.617 30.48 159.261 30.396 159.803 30.228C160.344 30.0413 160.783 29.7053 161.119 29.22C161.473 28.7347 161.735 28.016 161.903 27.064C162.071 26.0933 162.155 24.824 162.155 23.256C162.155 21.6693 162.071 20.4 161.903 19.448C161.753 18.4773 161.501 17.7493 161.147 17.264C160.811 16.76 160.372 16.424 159.831 16.256C159.289 16.0693 158.636 15.976 157.871 15.976C157.105 15.976 156.452 16.0693 155.911 16.256C155.369 16.424 154.921 16.76 154.567 17.264C154.231 17.7493 153.979 18.4773 153.811 19.448C153.643 20.4 153.559 21.6693 153.559 23.256C153.559 24.824 153.643 26.0933 153.811 27.064C153.979 28.016 154.24 28.744 154.595 29.248C154.949 29.7333 155.397 30.06 155.939 30.228C156.48 30.396 157.124 30.48 157.871 30.48ZM180.881 33L173.349 22.864L180.349 13.428H184.297L176.989 22.668V22.836L184.913 33H180.881ZM169.989 33L170.073 23.06L169.989 13.428H173.265V33H169.989Z" fill="#63A60E"/>
<path d="M82.3165 51.168C81.8605 51.168 81.4325 51.104 81.0325 50.976C80.6405 50.848 80.2885 50.624 79.9765 50.304C79.6725 49.984 79.4325 49.54 79.2565 48.972C79.0885 48.404 79.0045 47.676 79.0045 46.788C79.0045 45.908 79.0885 45.188 79.2565 44.628C79.4325 44.06 79.6725 43.62 79.9765 43.308C80.2885 42.988 80.6405 42.768 81.0325 42.648C81.4325 42.52 81.8605 42.456 82.3165 42.456C82.7645 42.456 83.1885 42.52 83.5885 42.648C83.9885 42.768 84.3405 42.988 84.6445 43.308C84.9485 43.62 85.1885 44.06 85.3645 44.628C85.5405 45.188 85.6285 45.908 85.6285 46.788C85.6285 47.676 85.5405 48.404 85.3645 48.972C85.1885 49.54 84.9485 49.984 84.6445 50.304C84.3405 50.624 83.9885 50.848 83.5885 50.976C83.1885 51.104 82.7645 51.168 82.3165 51.168ZM82.3165 49.92C82.6365 49.92 82.9125 49.884 83.1445 49.812C83.3765 49.732 83.5645 49.588 83.7085 49.38C83.8605 49.172 83.9725 48.864 84.0445 48.456C84.1165 48.04 84.1525 47.496 84.1525 46.824C84.1525 46.144 84.1165 45.6 84.0445 45.192C83.9805 44.776 83.8725 44.464 83.7205 44.256C83.5765 44.04 83.3885 43.896 83.1565 43.824C82.9245 43.744 82.6445 43.704 82.3165 43.704C81.9885 43.704 81.7085 43.744 81.4765 43.824C81.2445 43.896 81.0525 44.04 80.9005 44.256C80.7565 44.464 80.6485 44.776 80.5765 45.192C80.5045 45.6 80.4685 46.144 80.4685 46.824C80.4685 47.496 80.5045 48.04 80.5765 48.456C80.6485 48.864 80.7605 49.176 80.9125 49.392C81.0645 49.6 81.2565 49.74 81.4885 49.812C81.7205 49.884 81.9965 49.92 82.3165 49.92ZM87.5099 51V42.612H88.9139L88.8779 46.128H92.0579L92.0339 42.612H93.4259V51H92.0339L92.0579 47.34H88.8779L88.9139 51H87.5099ZM94.9813 51.168L94.7653 50.148C94.8853 50.132 94.9893 50.116 95.0773 50.1C95.1733 50.076 95.2533 50.052 95.3173 50.028C95.4773 49.972 95.6013 49.892 95.6893 49.788C95.7853 49.684 95.8573 49.512 95.9053 49.272C95.9613 49.032 96.0053 48.68 96.0373 48.216L96.4093 42.612H101.401V51H99.9973L100.057 43.812L97.6813 43.824L97.3693 48.396C97.3293 48.972 97.2573 49.448 97.1533 49.824C97.0573 50.192 96.8813 50.476 96.6253 50.676C96.4573 50.812 96.2293 50.928 95.9413 51.024C95.6613 51.12 95.3413 51.168 94.9813 51.168ZM102.518 51L104.81 42.612H106.682L108.974 51H107.534L107.018 48.948H104.474L103.958 51H102.518ZM104.75 47.736H106.742L105.782 43.896H105.698L104.75 47.736ZM110.115 51V42.612H111.447L111.387 46.8L111.375 49.116L114.399 42.612H116.271V51H114.939L114.987 47.196L114.999 44.1L111.783 51H110.115ZM113.211 42.324C112.571 42.324 112.087 42.18 111.759 41.892C111.431 41.604 111.247 41.14 111.207 40.5L112.047 40.464C112.095 40.76 112.207 40.98 112.383 41.124C112.559 41.26 112.835 41.328 113.211 41.328C113.611 41.328 113.895 41.26 114.063 41.124C114.239 40.98 114.355 40.76 114.411 40.464L115.179 40.5C115.131 41.164 114.943 41.636 114.615 41.916C114.295 42.188 113.827 42.324 113.211 42.324ZM118.553 51V42.612H119.957L119.921 46.128H123.101L123.077 42.612H124.469V51H123.077L123.101 47.34H119.921L119.957 51H118.553ZM126.036 47.652V46.476H128.94V47.652H126.036ZM130.446 51L130.734 42.612H132.63L134.298 47.772H134.37L136.062 42.612H137.934L138.234 51H136.842L136.818 44.124H136.734L135.114 49.128H133.554L131.946 44.124H131.862L131.838 51H130.446ZM139.279 51L141.571 42.612H143.443L145.735 51H144.295L143.779 48.948H141.235L140.719 51H139.279ZM141.511 47.736H143.503L142.543 43.896H142.459L141.511 47.736ZM146.877 51L146.925 47.1L146.877 42.624C146.877 42.624 146.969 42.616 147.153 42.6C147.337 42.584 147.577 42.564 147.873 42.54C148.177 42.516 148.501 42.496 148.845 42.48C149.197 42.464 149.537 42.456 149.865 42.456C150.649 42.456 151.257 42.696 151.689 43.176C152.121 43.656 152.337 44.376 152.337 45.336C152.337 45.936 152.257 46.432 152.097 46.824C151.945 47.208 151.737 47.512 151.473 47.736C151.217 47.952 150.929 48.108 150.609 48.204C150.289 48.292 149.957 48.336 149.613 48.336C149.333 48.336 149.061 48.328 148.797 48.312C148.533 48.296 148.361 48.284 148.281 48.276V51H146.877ZM149.673 47.184C150.121 47.184 150.417 47.116 150.561 46.98C150.673 46.868 150.753 46.668 150.801 46.38C150.849 46.092 150.873 45.708 150.873 45.228C150.873 44.836 150.853 44.54 150.813 44.34C150.773 44.14 150.725 44 150.669 43.92C150.621 43.832 150.573 43.768 150.525 43.728C150.461 43.68 150.345 43.64 150.177 43.608C150.017 43.568 149.821 43.548 149.589 43.548C149.333 43.548 149.085 43.56 148.845 43.584C148.613 43.608 148.425 43.632 148.281 43.656V47.064C148.345 47.08 148.509 47.104 148.773 47.136C149.045 47.168 149.345 47.184 149.673 47.184ZM158.729 51L155.501 46.656L158.501 42.612H160.193L157.061 46.572V46.644L160.457 51H158.729ZM154.061 51L154.097 46.74L154.061 42.612H155.465V51H154.061ZM161.455 51V42.612H165.991V43.824L162.859 43.8L162.799 46.152H165.691V47.328H162.799L162.859 49.812L165.991 49.788V51H161.455ZM168.934 51L168.958 43.788L166.618 43.824V42.612H172.678V43.824L170.302 43.788L170.338 51H168.934Z" fill="#63A60E"/>
<path opacity="0.2" d="M54.6482 59.0669C54.6482 58.5552 43.174 58.1338 29.0366 58.1338C14.8993 58.1338 3.42505 58.5552 3.42505 59.0669C3.42505 59.5786 14.8993 60 29.0366 60C43.2069 60 54.6482 59.5786 54.6482 59.0669Z" fill="#5D5D5D"/>
<path d="M29.3985 11.8098C40.544 11.8098 49.5853 20.0873 49.5853 30.2913V48.7727H29.3985C18.253 48.7727 9.21167 40.4952 9.21167 30.2913V11.8098H29.3985Z" fill="#63A60E"/>
<path opacity="0.3" d="M46.692 20.7796C45.0153 22.5555 43.9961 24.8732 43.9961 27.4016C43.9961 31.1641 46.2318 34.445 49.5524 36.2209V30.2912C49.5524 26.8297 48.5332 23.5789 46.692 20.7796Z" fill="#63A60E"/>
<path d="M38.7685 13.9468C35.6122 15.6023 33.5081 18.7027 33.5081 22.2846C33.5081 27.5822 38.2095 31.8865 43.996 31.8865C46.0344 31.8865 47.9413 31.3447 49.5523 30.4116V30.2912C49.5523 23.1876 45.1796 17.017 38.7685 13.9468Z" fill="#63A60E"/>
<path opacity="0.5" d="M22.9216 15.3909C17.7269 15.3909 12.9597 17.0464 9.21167 19.8457V30.3205C9.21167 40.5245 18.253 48.802 29.3985 48.802H39.0645C42.5824 45.2502 44.7194 40.5546 44.7194 35.3773C44.7194 24.3306 34.9548 15.3909 22.9216 15.3909Z" fill="#E0EDCF"/>
<path d="M49.5524 48.7426L29.3985 48.7727C18.253 48.7727 9.21167 40.4951 9.21167 30.2912V11.8398L49.5524 48.7426Z" fill="#63A60E"/>
<path opacity="0.3" d="M12.335 18.4317C12.335 32.4584 24.7627 43.8061 40.0507 43.8061C41.3658 43.8061 42.648 43.7158 43.8974 43.5653L12.598 14.9401C12.4336 16.0839 12.335 17.2578 12.335 18.4317Z" fill="#63A60E"/>
<path opacity="0.3" d="M49.5523 48.7727L9.37598 11.9904C14.1103 18.4619 19.568 25.0237 25.1243 30.4417C29.4641 34.6557 41.9905 44.077 49.5523 48.7727Z" fill="#63A60E"/>
<path opacity="0.3" d="M22.3956 23.8799L9.21167 11.8398V30.3213C9.21167 38.4784 14.9981 45.4014 22.9874 47.8396C19.5681 44.679 17.4639 40.3446 17.4639 35.5888C17.4639 31.0738 19.3379 26.9802 22.3956 23.8799Z" fill="#63A60E"/>
<path opacity="0.3" d="M40.3467 40.3447C36.9274 44.1674 31.7328 46.6356 25.9135 46.6356C22.0339 46.6356 18.4174 45.552 15.4255 43.6858C19.0421 46.8463 23.9408 48.8028 29.3656 48.8028H49.5524V48.7727L40.3467 40.3447Z" fill="#63A60E"/>
<path opacity="0.3" d="M10.3953 22.8866C10.3953 19.9067 10.9542 17.0171 12.0063 14.3683L9.21167 11.8398V30.3213C9.21167 40.5252 18.253 48.8028 29.3985 48.8028H49.5853V48.7727L47.5797 46.9366C44.6536 47.8998 41.5303 48.4115 38.2425 48.4115C22.8558 48.3814 10.3953 36.9734 10.3953 22.8866Z" fill="#E0EDCF"/>
<path d="M49.2235 52.3546C50.6372 51.9934 52.1167 52.776 52.4784 54.0703C52.8729 55.3646 52.0181 56.7191 50.5715 57.0502C49.1577 57.4114 47.6782 56.6288 47.3166 55.3345C46.9549 54.0402 47.8097 52.7158 49.2235 52.3546ZM48.6974 50.5185C46.1659 51.1506 44.6535 53.4984 45.3439 55.8161C46.0015 58.1338 48.5988 59.5184 51.1304 58.8863C53.662 58.2542 55.1743 55.8763 54.4839 53.5887C53.8263 51.271 51.229 49.9165 48.6974 50.5185Z" fill="#63A60E"/>
<path opacity="0.5" d="M52.0505 56.1768C51.6888 56.5982 51.1956 56.9294 50.6038 57.0799C49.1901 57.4411 47.7106 56.6584 47.349 55.3641C47.086 54.4009 47.4476 53.4377 48.2367 52.8658C47.8421 52.3541 47.5134 51.7822 47.1846 51.2103C45.6065 52.2337 44.8174 54.0698 45.3434 55.8758C46.001 58.1936 48.5983 59.5782 51.1299 58.9461C52.3135 58.6451 53.2669 57.9829 53.8916 57.1099C53.2669 56.8089 52.6423 56.5079 52.0505 56.1768Z" fill="#63A60E"/>
<path d="M10.1648 52.3546C11.5785 52.0235 13.058 52.8061 13.4196 54.1004C13.7813 55.3947 12.9265 56.7492 11.5127 57.0803C10.099 57.4114 8.61952 56.6288 8.25787 55.3345C7.89622 54.0402 8.75103 52.6857 10.1648 52.3546ZM9.63872 50.5185C7.10716 51.1205 5.59479 53.4984 6.25234 55.8161C6.90989 58.1338 9.50721 59.5184 12.0388 58.9164C14.5704 58.3144 16.0827 55.9365 15.458 53.6188C14.7676 51.3011 12.1703 49.9165 9.63872 50.5185Z" fill="#63A60E"/>
<path opacity="0.5" d="M12.9597 56.207C12.598 56.6284 12.1049 56.9595 11.5131 57.0799C10.0993 57.411 8.61984 56.6284 8.25819 55.3341C7.99517 54.3709 8.3897 53.4077 9.14588 52.8358C8.75135 52.3241 8.42258 51.7522 8.12668 51.1803C6.54856 52.1736 5.72662 54.0097 6.25266 55.8157C6.91021 58.1334 9.50754 59.518 12.0391 58.916C13.2227 58.6451 14.209 57.9528 14.8008 57.0799C14.1433 56.8391 13.5515 56.5381 12.9597 56.207Z" fill="#63A60E"/>
<path d="M10.4938 10.5455C9.86915 10.5455 9.34311 10.0639 9.34311 9.49205C9.34311 7.02384 8.58693 5.15763 7.14031 3.92353C4.80601 1.90682 1.28812 2.11752 1.25524 2.11752C0.630565 2.17772 0.071647 1.72622 0.00589198 1.15432C-0.0598631 0.582418 0.4333 0.0707164 1.05797 0.0105162C1.25524 0.0105162 5.59507 -0.290485 8.68556 2.32822C10.6582 3.98373 11.6445 6.39174 11.6445 9.46194C11.6445 10.0639 11.1514 10.5455 10.4938 10.5455Z" fill="#63A60E"/>
</svg>
