<svg width="24" height="24" viewBox="0 0 24 24" fill="none" xmlns="http://www.w3.org/2000/svg">
<path d="M23.8483 3.02906C23.7169 2.86486 23.518 2.76928 23.3077 2.76928H4.88212L4.36687 0.536624C4.29436 0.222515 4.01465 0 3.69229 0H0.692296C0.309984 0 0 0.309984 0 0.692343C0 1.0747 0.309984 1.38464 0.692296 1.38464H3.14156L6.63899 16.5403C6.71146 16.8544 6.99121 17.0769 7.31357 17.0769H21.1846C21.5669 17.0769 21.8769 16.7669 21.8769 16.3846C21.8769 16.0023 21.5669 15.6923 21.1846 15.6923H7.86435L7.33185 13.3846H21.2308C21.5546 13.3846 21.8352 13.1602 21.9062 12.8443L23.9831 3.61354C24.0293 3.40832 23.9797 3.19331 23.8483 3.02906ZM20.6769 12H7.01231L5.20167 4.15387H22.4423L20.6769 12Z" fill="white"/>
<path d="M10.1538 18C8.75414 18 7.61536 19.1387 7.61536 20.5385C7.61536 21.9382 8.75409 23.0769 10.1538 23.0769C11.5535 23.0769 12.6923 21.9382 12.6923 20.5385C12.6923 19.1387 11.5536 18 10.1538 18ZM10.1538 21.6923C9.51759 21.6923 9 21.1747 9 20.5385C9 19.9022 9.51759 19.3846 10.1538 19.3846C10.7901 19.3846 11.3076 19.9022 11.3076 20.5385C11.3076 21.1747 10.7901 21.6923 10.1538 21.6923Z" fill="white"/>
<path d="M18.4615 18C17.0618 18 15.923 19.1387 15.923 20.5385C15.923 21.9382 17.0617 23.0769 18.4615 23.0769C19.8612 23.0769 20.9999 21.9382 20.9999 20.5385C20.9999 19.1387 19.8612 18 18.4615 18ZM18.4615 21.6923C17.8252 21.6923 17.3076 21.1747 17.3076 20.5385C17.3076 19.9023 17.8252 19.3847 18.4615 19.3847C19.0977 19.3847 19.6153 19.9023 19.6153 20.5385C19.6153 21.1747 19.0977 21.6923 18.4615 21.6923Z" fill="white"/>
</svg>
