<svg width="32" height="32" viewBox="0 0 32 32" fill="none" xmlns="http://www.w3.org/2000/svg">
<g clip-path="url(#clip0)">
<path d="M31.2919 7.90543L31.3319 8.16677C30.9452 6.79477 29.9012 5.7361 28.5746 5.35077L28.5466 5.3441C26.0519 4.66677 16.0132 4.66677 16.0132 4.66677C16.0132 4.66677 5.9999 4.65343 3.4799 5.3441C2.1279 5.7361 1.08257 6.79477 0.702571 8.13877L0.695904 8.16677C-0.236096 13.0348 -0.242763 18.8841 0.737237 24.0961L0.695904 23.8321C1.08257 25.2041 2.12657 26.2628 3.45324 26.6481L3.48124 26.6548C5.97324 27.3334 16.0146 27.3334 16.0146 27.3334C16.0146 27.3334 26.0266 27.3334 28.5479 26.6548C29.9012 26.2628 30.9466 25.2041 31.3266 23.8601L31.3332 23.8321C31.7572 21.5681 31.9999 18.9628 31.9999 16.3014C31.9999 16.2041 31.9999 16.1054 31.9986 16.0068C31.9999 15.9161 31.9999 15.8081 31.9999 15.7001C31.9999 13.0374 31.7572 10.4321 31.2919 7.90543ZM12.8106 20.8681V11.1441L21.1652 16.0134L12.8106 20.8681Z" fill="white"/>
</g>
<defs>
<clipPath id="clip0">
<rect width="32" height="32" fill="white"/>
</clipPath>
</defs>
</svg>
